<?xml version="1.0" standalone="no"?>
<!DOCTYPE svg PUBLIC "-//W3C//DTD SVG 20010904//EN"
 "http://www.w3.org/TR/2001/REC-SVG-20010904/DTD/svg10.dtd">
<svg version="1.0" xmlns="http://www.w3.org/2000/svg"
 width="194.000000pt" height="180.000000pt" viewBox="0 0 194.000000 180.000000"
 preserveAspectRatio="xMidYMid meet">

<g transform="translate(0.000000,180.000000) scale(0.100000,-0.100000)"
fill="#000000" stroke="none">
<path d="M205 1782 c-97 -34 -167 -108 -192 -204 -21 -82 -19 -1294 2 -1366
22 -74 82 -144 152 -178 l58 -29 745 0 745 0 57 28 c69 34 121 91 148 165 20
53 20 71 18 716 -3 652 -3 662 -24 707 -12 26 -41 66 -64 89 -23 23 -63 52
-89 64 -46 21 -53 21 -776 23 -672 2 -734 1 -780 -15z m946 -116 c150 -32 299
-114 410 -225 56 -56 139 -167 139 -186 0 -3 -61 -5 -136 -5 l-136 0 -56 51
c-114 102 -267 155 -422 146 -304 -17 -538 -247 -557 -548 -19 -286 174 -549
449 -614 268 -63 549 70 666 315 38 81 62 163 62 215 l0 25 -165 0 -165 0 -22
-34 c-59 -89 -234 -325 -239 -323 -8 3 -279 315 -279 322 0 3 53 5 118 6 l117
0 93 130 93 129 328 0 328 0 12 -57 c18 -90 14 -246 -9 -343 -26 -109 -95
-248 -164 -332 -102 -123 -270 -232 -421 -273 -83 -22 -265 -31 -350 -16 -266
47 -488 214 -605 456 -63 130 -75 187 -74 365 0 146 2 160 31 242 102 293 335
500 624 557 70 14 258 12 330 -3z"/>
</g>
</svg>
